<?xml version="1.0" encoding="UTF-8"?>
<!-- Generator: Adobe Illustrator 21.0.2, SVG Export Plug-In . SVG Version: 6.00 Build 0)  -->
<svg version="1.1" id="Layer_1" xmlns="http://www.w3.org/2000/svg" xmlns:xlink="http://www.w3.org/1999/xlink" x="0px" y="0px" viewBox="0 0 100 63" style="enable-background:new 0 0 100 63;" xml:space="preserve">
<path d="M49.8,0C33.3,10.1,16.7,20.1,0.1,30.2L0,30.4h12.4c0,3.8,0.1,7.6,0.1,11.4c25.1,0,50.1,0.1,75.2,0.1V30.6  c4.1,0,8.2-0.1,12.4-0.1C83.3,20.3,66.6,10.2,49.8,0z M28,36.5c-2.4,0.4-1.6-2.6-0.5-3.4h0.6c0.2,0.2,0.4,0.4,0.6,0.5  C29.1,34.9,28.9,35.9,28,36.5z M28.6,21.8c-1.6,5-3.2,10-4.7,14.9c-1.1,0-2.1,0.1-3.2,0.1c-0.9-4.3-1.9-8.5-2.8-12.8  c0.8-0.5,1.6-1.1,2.5-1.6c0.6,3.1,1.2,6.2,1.8,9.2v0.2h0.1c1.4-4.4,2.8-8.9,4.2-13.3c1.2-0.7,2.4-1.4,3.5-2.1  C30.2,16.8,28.9,20.9,28.6,21.8z M33.2,33.9c-0.1-1.8-0.2-3.7-0.3-5.5c0.7-0.6,1.4-1.2,2-1.8c0.1,0,0.2-0.1,0.3-0.1  c0.8,3.3-0.9,5.1,1.7,6.9c2.9-0.2,2.4-3,2.4-6c0-5.5,0.1-11,0.1-16.5l2.9-1.9c0,2.1,0.1,4.2,0.1,6.3c0,5,0.9,16.3-1.3,19.2  C39.3,37,34.5,37.1,33.2,33.9z M44,36.5c-1.2,0-2-1.4-1.3-2.5c0.2-0.5,0.5-0.6,1-0.9c0.7,0.2,1,0.4,1.3,0.9  C45.3,35.3,44.9,36.1,44,36.5z M59,36.6h-2.6c-0.7-2-2.2-11.1-3.8-11.5c-0.1,3.8-0.1,7.6-0.2,11.4c-0.9,0-1.8,0.1-2.7,0.1  c0-10.7,0.1-21.3,0.1-32C54.2,6.8,60,9.7,58.4,17c-0.5,2.3-1.2,4.1-2.7,5.4c1.1,4.7,2.1,9.3,3.2,14V36.6z M70.7,36.6  c-0.6-2.3-1.1-4.5-1.7-6.8h-4.4c-0.6,2.2-1.3,4.4-1.9,6.7c-0.5,0.3-1.6,0.2-2.5,0.2L60,36.6c2.1-7.3,4.2-14.7,6.3-22  c3,1.5,2.6,3,3.4,6.4c1.2,5.2,2.4,10.5,3.7,15.7C72.5,36.7,71.6,36.7,70.7,36.6z M79.7,30.8c-0.1,1.9-0.1,3.9-0.2,5.8h-2.7  c0-8.3-2-12.3-4.2-18.3c1.1,0.6,2.1,1.3,3.2,1.9c0.9,2.3,1.7,4.7,2.6,7c0.6-1.4,1.3-2.7,1.9-4.1c0.6,0,1.8,0.8,2.3,1.3  C82.3,26.8,80.4,28.7,79.7,30.8z M52.5,9.6v11.6h0.1c2.8-2.1,4-6,2.1-9.6C54.3,10.6,53.8,9.7,52.5,9.6z M66.9,21.7  c-0.5,1.8-1,3.6-1.5,5.4h2.9c-0.4-1.8-0.8-3.6-1.2-5.4H66.9z M24.6,53.2h3.2v9.5h3.4v-9.5h3.2v-3.1h-9.8V53.2z M79.1,50.1l-4.9,12.6  H78l0.8-2.4h4.3l0.8,2.4h3.8l-4.9-12.6H79.1z M79.6,57.7l1.3-4l1.3,4H79.6z M20.3,55.4l-2.6-1.3c-0.5-0.3-0.7-0.5-0.7-0.7  c0-0.3,0.2-0.5,0.8-0.5c0.8,0,2,0.3,3.1,1l1.5-3.1c-1.6-0.8-3-1.1-4.3-1.1c-3.2,0-4.8,1.6-4.8,3.8c0,1.6,0.8,2.8,2.2,3.6l2.8,1.4  c0.4,0.2,0.6,0.4,0.6,0.7c0,0.4-0.4,0.6-1.1,0.6c-1.2,0-2.5-0.5-4-1.6l-1.6,3.3c1.7,1,3.5,1.4,5.3,1.4c3.2,0,5-1.4,5-4  C22.7,57,21.7,56.1,20.3,55.4z M47.4,54.2c0-2.2-1.4-4.2-4.8-4.2h-5.4v12.6h3.4V58l3.3,4.7h4.3L44.7,58  C46.5,57.4,47.4,55.9,47.4,54.2z M42.2,55.8h-1.5v-2.7h1.5c1,0,1.7,0.4,1.7,1.3S43.2,55.8,42.2,55.8z M64,53.2h3.2v9.5h3.4v-9.5h3.2  v-3.1H64V53.2z M55,50.1l-4.9,12.6h3.8l0.8-2.4H59l0.8,2.4h3.8l-4.9-12.6H55z M55.5,57.7l1.3-4l1.3,4H55.5z"/>
</svg>